<svg width="66" height="48" viewBox="0 0 66 48" fill="none" xmlns="http://www.w3.org/2000/svg">
<g opacity="0.87">
<path fill-rule="evenodd" clip-rule="evenodd" d="M42.7111 11.6867C50.0504 11.6867 56 17.5772 56 24.8434C56 32.1096 50.0504 38 42.7111 38C35.3719 38 29.4222 32.1096 29.4222 24.8434C29.4222 17.5772 35.3719 11.6867 42.7111 11.6867ZM36.5565 19.7927C35.3464 19.7927 34.5334 20.7292 34.5333 21.6814V28.3361C34.5334 29.3613 35.4966 30.2344 36.5565 30.2344H40.6211C40.826 30.2344 41.0136 30.2063 41.1824 30.1612C41.2065 30.1548 41.2304 30.1479 41.2536 30.1408C41.8141 29.9704 42.1525 29.62 42.218 29.5458L46.0493 25.3553C46.2305 25.1624 46.2546 24.8825 46.0523 24.6737C46.0501 24.6713 46.0472 24.6692 46.045 24.6668L42.421 20.7418H44.094L47.8815 25.0167L43.8957 29.5284C43.8957 29.5284 43.8971 29.5339 43.9027 29.5399C43.8655 29.6064 43.8441 29.682 43.8441 29.7623C43.8442 30.0266 44.0726 30.241 44.3543 30.241H47.3687C47.5553 30.2409 47.7183 30.1467 47.8073 30.0064L47.8102 30.0031L52.1021 25.3665C52.1043 25.3641 52.1065 25.3617 52.1088 25.3593C52.3118 25.1507 52.2877 24.8706 52.1064 24.6777L47.8612 20.0223C47.7716 19.8843 47.6096 19.792 47.4249 19.792C47.1432 19.7921 46.9148 20.0066 46.9148 20.271C46.9148 20.4103 46.9783 20.5357 47.0795 20.6232L50.9255 24.9989L47.1224 29.2912H45.4793L49.0737 25.3665C49.076 25.3641 49.0781 25.3617 49.0804 25.3593C49.1812 25.2563 49.2255 25.1356 49.2231 25.0167C49.2255 24.8978 49.1811 24.777 49.081 24.6737C49.0788 24.6713 49.076 24.6691 49.0737 24.6668L44.7818 20.0299L44.7788 20.0266C44.69 19.8862 44.5265 19.792 44.3399 19.792H41.3259C41.0441 19.792 40.8157 20.0066 40.8157 20.271C40.8157 20.3513 40.8273 20.4347 40.874 20.4934L44.8687 25.0344L41.4639 28.8675C41.4433 28.887 41.1501 29.2789 40.6347 29.279H36.5685C36.0156 29.2789 35.5573 28.874 35.5572 28.3361V21.6913C35.5572 21.223 36.0156 20.7418 36.5811 20.7418H39.1107C39.4089 20.7418 39.6208 20.5508 39.6208 20.271C39.6208 19.9912 39.4089 19.7831 39.1107 19.7831L36.5565 19.7927Z" fill="black"/>
<path d="M37.1112 10C35.6306 10.708 34.2683 11.62 33.0609 12.6988H14.4296C13.4887 12.6988 12.7259 13.454 12.7259 14.3855V30.241C12.7259 31.1725 13.4887 31.9277 14.4296 31.9277H28.7078C29.1082 32.8739 29.5932 33.7761 30.152 34.6265H13.7481C11.6781 34.6265 10 32.9651 10 30.9157V13.7108C10 11.6614 11.6781 10 13.7481 10H37.1112Z" fill="black"/>
<path d="M21.5852 16.4096C22.3379 16.4096 22.9481 17.0138 22.9481 17.759V21.8072C22.9481 22.5525 22.3379 23.1566 21.5852 23.1566H17.4963C16.7436 23.1566 16.1333 22.5525 16.1333 21.8072V17.759C16.1333 17.0138 16.7436 16.4096 17.4963 16.4096H21.5852Z" fill="black"/>
</g>
</svg>
