<svg width="25" height="24" viewBox="0 0 25 24" fill="none" xmlns="http://www.w3.org/2000/svg">
<path d="M18.4058 4.58824C18.2846 4.38463 18.0653 4.24864 17.8151 4.24864C17.4334 4.24864 17.124 4.56482 17.124 4.95502C17.124 5.1606 17.21 5.34568 17.3472 5.4748L22.5565 11.9301L17.4051 18.2627H16.8434H15.1797L20.048 12.4724C20.0511 12.4688 20.054 12.4653 20.057 12.4617C20.1936 12.3097 20.254 12.1317 20.2508 11.9562C20.254 11.7808 20.1936 11.6028 20.058 11.4504L20.057 11.4507C20.054 11.4471 20.0511 11.4436 20.048 11.4401L14.2346 4.59943C14.2333 4.59783 14.232 4.59624 14.2306 4.59464C14.1103 4.38746 13.8891 4.24864 13.6364 4.24864H9.55349C9.17186 4.24864 8.86245 4.56482 8.86245 4.95502C8.86245 5.07342 8.87827 5.19653 8.94157 5.28314L14.3523 11.9824L9.74082 17.6377C9.7134 17.6657 9.31603 18.2445 8.61735 18.2445H3.10985C2.36085 18.2445 1.73972 17.6471 1.73972 16.8534V7.05025C1.73972 6.35939 2.36085 5.64982 3.12678 5.64982H6.55313C6.95703 5.64982 7.24418 5.36788 7.24418 4.95502C7.24418 4.54216 6.95703 4.23529 6.55313 4.23529L3.0932 4.2493C1.45414 4.2493 0.353027 5.63111 0.353027 7.03586V16.8534C0.353027 18.3659 1.65756 19.6543 3.0932 19.6543H8.59913C8.8768 19.6543 9.13082 19.6127 9.35955 19.5461C9.39221 19.5366 9.42441 19.5266 9.45597 19.5161C10.2151 19.2646 10.6733 18.748 10.762 18.6385L15.9518 12.456C16.1972 12.1713 16.2299 11.7584 15.9558 11.4504L15.9548 11.4507C15.9518 11.4471 15.9489 11.4436 15.9459 11.4401L11.0368 5.64982H12.7413H13.303L18.4331 11.9563L13.0346 18.6127C13.0328 18.6147 13.0361 18.6204 13.0438 18.6294C12.9934 18.7275 12.9647 18.839 12.9647 18.9575C12.9647 19.3476 13.2741 19.6639 13.6556 19.6639H17.7385C17.9913 19.6639 18.2123 19.5249 18.3329 19.3178C18.3341 19.3162 18.3367 19.3131 18.3367 19.3131L24.1502 12.4724C24.1533 12.4688 24.1561 12.4653 24.1591 12.4617C24.4341 12.154 24.4016 11.7411 24.1561 11.4564L18.4058 4.58824Z" fill="#141413"/>
</svg>
