<svg width="32" height="21" viewBox="0 0 32 21" fill="none" xmlns="http://www.w3.org/2000/svg">
<g clip-path="url(#clip0_2021_433)">
<path opacity="0.2" fill-rule="evenodd" clip-rule="evenodd" d="M26.58 21.0001H2.42C2.10482 21.0027 1.79222 20.9433 1.50002 20.8251C1.20783 20.7069 0.941782 20.5323 0.717062 20.3113C0.492342 20.0903 0.313355 19.8272 0.190321 19.537C0.0672866 19.2468 0.00261552 18.9353 0 18.6201L0 4.38008C0.00261552 4.06491 0.0672866 3.75333 0.190321 3.46315C0.313355 3.17297 0.492342 2.90987 0.717062 2.68886C0.941782 2.46786 1.20783 2.29328 1.50002 2.1751C1.79222 2.05692 2.10482 1.99745 2.42 2.00008H26.58C26.8952 1.99745 27.2078 2.05692 27.5 2.1751C27.7922 2.29328 28.0582 2.46786 28.2829 2.68886C28.5077 2.90987 28.6866 3.17297 28.8097 3.46315C28.9327 3.75333 28.9974 4.06491 29 4.38008V18.6301C28.9921 19.2649 28.733 19.8707 28.2794 20.3148C27.8259 20.759 27.2148 21.0054 26.58 21.0001ZM10 7.83008C10 7.37008 9.65 7.00008 9.22 7.00008H3.78C3.35 7.00008 3 7.37008 3 7.83008V11.1701C3 11.6301 3.35 12.0001 3.78 12.0001H9.22C9.65 12.0001 10 11.6301 10 11.1701V7.83008Z" fill="#515E80"/>
<path opacity="0.3" fill-rule="evenodd" clip-rule="evenodd" d="M25 17H22C21.35 17 21 16.7 21 16C21 15.3 21.35 15 22 15H25C25.65 15 26 15.3 26 16C26 16.7 25.65 17 25 17ZM19 17H16C15.35 17 15 16.7 15 16C15 15.3 15.35 15 16 15H19C19.65 15 20 15.3 20 16C20 16.7 19.65 17 19 17ZM13 17H10C9.35 17 9 16.7 9 16C9 15.3 9.35 15 10 15H13C13.65 15 14 15.3 14 16C14 16.7 13.65 17 13 17ZM7 17H4C3.35 17 3 16.7 3 16C3 15.3 3.35 15 4 15H7C7.65 15 8 15.3 8 16C8 16.7 7.65 17 7 17Z" fill="#515E80"/>
</g>
<defs>
<clipPath id="clip0_2021_433">
<rect width="32" height="21" fill="white"/>
</clipPath>
</defs>
</svg>
