<svg width="21" height="20" viewBox="0 0 21 20" fill="none" xmlns="http://www.w3.org/2000/svg">
<path d="M14.625 8H13.9375V6.57143C13.9375 4.6 12.3975 3 10.5 3C8.6025 3 7.0625 4.6 7.0625 6.57143V8H6.375C5.61875 8 5 8.64286 5 9.42857V16.5714C5 17.3571 5.61875 18 6.375 18H14.625C15.3813 18 16 17.3571 16 16.5714V9.42857C16 8.64286 15.3813 8 14.625 8ZM10.5 14.4286C9.74375 14.4286 9.125 13.7857 9.125 13C9.125 12.2143 9.74375 11.5714 10.5 11.5714C11.2562 11.5714 11.875 12.2143 11.875 13C11.875 13.7857 11.2562 14.4286 10.5 14.4286ZM12.6313 8H8.36875V6.57143C8.36875 5.35 9.32438 4.35714 10.5 4.35714C11.6756 4.35714 12.6313 5.35 12.6313 6.57143V8Z" fill="white"/>
</svg>
